<mxfile host="app.diagrams.net" agent="Mozilla/5.0 (Macintosh; Intel Mac OS X 10_15_7) AppleWebKit/537.36 (KHTML, like Gecko) Chrome/135.0.0.0 Safari/537.36" version="26.2.12">
  <diagram name="第 1 页" id="wdlJEJVCv6MkUgaYpFra">
    <mxGraphModel dx="2100" dy="1782" grid="0" gridSize="10" guides="1" tooltips="1" connect="1" arrows="1" fold="1" page="0" pageScale="1" pageWidth="827" pageHeight="1169" math="0" shadow="0">
      <root>
        <mxCell id="0" />
        <mxCell id="1" parent="0" />
        <mxCell id="oqBidD13vxVgjalaLg6l-59" value="" style="edgeStyle=none;curved=1;rounded=0;orthogonalLoop=1;jettySize=auto;html=1;fontSize=12;startSize=8;endSize=8;" edge="1" parent="1" source="oqBidD13vxVgjalaLg6l-1" target="oqBidD13vxVgjalaLg6l-2">
          <mxGeometry relative="1" as="geometry" />
        </mxCell>
        <mxCell id="oqBidD13vxVgjalaLg6l-60" value="" style="edgeStyle=none;curved=1;rounded=0;orthogonalLoop=1;jettySize=auto;html=1;fontSize=12;startSize=8;endSize=8;" edge="1" parent="1" source="oqBidD13vxVgjalaLg6l-1" target="oqBidD13vxVgjalaLg6l-5">
          <mxGeometry relative="1" as="geometry" />
        </mxCell>
        <mxCell id="oqBidD13vxVgjalaLg6l-61" value="" style="edgeStyle=none;curved=1;rounded=0;orthogonalLoop=1;jettySize=auto;html=1;fontSize=12;startSize=8;endSize=8;" edge="1" parent="1" source="oqBidD13vxVgjalaLg6l-1" target="oqBidD13vxVgjalaLg6l-3">
          <mxGeometry relative="1" as="geometry" />
        </mxCell>
        <mxCell id="oqBidD13vxVgjalaLg6l-62" value="" style="edgeStyle=none;curved=1;rounded=0;orthogonalLoop=1;jettySize=auto;html=1;fontSize=12;startSize=8;endSize=8;" edge="1" parent="1" source="oqBidD13vxVgjalaLg6l-1" target="oqBidD13vxVgjalaLg6l-4">
          <mxGeometry relative="1" as="geometry" />
        </mxCell>
        <mxCell id="oqBidD13vxVgjalaLg6l-1" value="Agent" style="rounded=0;whiteSpace=wrap;html=1;" vertex="1" parent="1">
          <mxGeometry x="144" y="-151" width="120" height="60" as="geometry" />
        </mxCell>
        <mxCell id="oqBidD13vxVgjalaLg6l-2" value="Act" style="rounded=0;whiteSpace=wrap;html=1;" vertex="1" parent="1">
          <mxGeometry x="-17" y="-151" width="120" height="60" as="geometry" />
        </mxCell>
        <mxCell id="oqBidD13vxVgjalaLg6l-3" value="Plan" style="rounded=0;whiteSpace=wrap;html=1;" vertex="1" parent="1">
          <mxGeometry x="144" y="-242" width="120" height="60" as="geometry" />
        </mxCell>
        <mxCell id="oqBidD13vxVgjalaLg6l-4" value="Perception" style="rounded=0;whiteSpace=wrap;html=1;" vertex="1" parent="1">
          <mxGeometry x="144" y="-60" width="120" height="60" as="geometry" />
        </mxCell>
        <mxCell id="oqBidD13vxVgjalaLg6l-5" value="Memory" style="rounded=0;whiteSpace=wrap;html=1;" vertex="1" parent="1">
          <mxGeometry x="305" y="-151" width="120" height="60" as="geometry" />
        </mxCell>
        <mxCell id="oqBidD13vxVgjalaLg6l-22" style="edgeStyle=none;curved=1;rounded=0;orthogonalLoop=1;jettySize=auto;html=1;entryX=0.5;entryY=0;entryDx=0;entryDy=0;fontSize=12;startSize=8;endSize=8;" edge="1" parent="1" source="oqBidD13vxVgjalaLg6l-6" target="oqBidD13vxVgjalaLg6l-11">
          <mxGeometry relative="1" as="geometry" />
        </mxCell>
        <mxCell id="oqBidD13vxVgjalaLg6l-6" value="" style="rounded=0;whiteSpace=wrap;html=1;" vertex="1" parent="1">
          <mxGeometry x="167.5" y="85" width="395" height="172" as="geometry" />
        </mxCell>
        <mxCell id="oqBidD13vxVgjalaLg6l-7" value="Product（商品）競品&lt;br&gt;1. 規格&lt;br&gt;2. 價格" style="text;html=1;align=center;verticalAlign=middle;whiteSpace=wrap;rounded=0;" vertex="1" parent="1">
          <mxGeometry x="263" y="147" width="204" height="48" as="geometry" />
        </mxCell>
        <mxCell id="oqBidD13vxVgjalaLg6l-14" value="" style="rounded=0;whiteSpace=wrap;html=1;" vertex="1" parent="1">
          <mxGeometry x="16" y="481" width="772.5" height="426" as="geometry" />
        </mxCell>
        <mxCell id="oqBidD13vxVgjalaLg6l-23" value="" style="edgeStyle=none;curved=1;rounded=0;orthogonalLoop=1;jettySize=auto;html=1;fontSize=12;startSize=8;endSize=8;" edge="1" parent="1" source="oqBidD13vxVgjalaLg6l-8" target="oqBidD13vxVgjalaLg6l-15">
          <mxGeometry relative="1" as="geometry" />
        </mxCell>
        <mxCell id="oqBidD13vxVgjalaLg6l-72" style="edgeStyle=none;curved=1;rounded=0;orthogonalLoop=1;jettySize=auto;html=1;entryX=0.5;entryY=0;entryDx=0;entryDy=0;fontSize=12;startSize=8;endSize=8;dashed=1;" edge="1" parent="1" source="oqBidD13vxVgjalaLg6l-8" target="oqBidD13vxVgjalaLg6l-70">
          <mxGeometry relative="1" as="geometry" />
        </mxCell>
        <mxCell id="oqBidD13vxVgjalaLg6l-8" value="Web Search Agent" style="rounded=1;whiteSpace=wrap;html=1;" vertex="1" parent="1">
          <mxGeometry x="127" y="776" width="137" height="60" as="geometry" />
        </mxCell>
        <mxCell id="oqBidD13vxVgjalaLg6l-26" style="edgeStyle=orthogonalEdgeStyle;rounded=0;orthogonalLoop=1;jettySize=auto;html=1;entryX=0;entryY=0.5;entryDx=0;entryDy=0;fontSize=12;startSize=8;endSize=8;exitX=0;exitY=0.5;exitDx=0;exitDy=0;" edge="1" parent="1" source="oqBidD13vxVgjalaLg6l-10" target="oqBidD13vxVgjalaLg6l-8">
          <mxGeometry relative="1" as="geometry" />
        </mxCell>
        <mxCell id="oqBidD13vxVgjalaLg6l-10" value="Search Supervisor Agent" style="rounded=1;whiteSpace=wrap;html=1;" vertex="1" parent="1">
          <mxGeometry x="281.5" y="539" width="167" height="60" as="geometry" />
        </mxCell>
        <mxCell id="oqBidD13vxVgjalaLg6l-25" style="edgeStyle=none;curved=1;rounded=0;orthogonalLoop=1;jettySize=auto;html=1;fontSize=12;startSize=8;endSize=8;entryX=0.5;entryY=0;entryDx=0;entryDy=0;" edge="1" parent="1" source="oqBidD13vxVgjalaLg6l-11" target="oqBidD13vxVgjalaLg6l-10">
          <mxGeometry relative="1" as="geometry" />
        </mxCell>
        <mxCell id="oqBidD13vxVgjalaLg6l-49" value="" style="edgeStyle=none;curved=1;rounded=0;orthogonalLoop=1;jettySize=auto;html=1;fontSize=12;startSize=8;endSize=8;entryX=1;entryY=0.5;entryDx=0;entryDy=0;dashed=1;" edge="1" parent="1" source="oqBidD13vxVgjalaLg6l-11" target="oqBidD13vxVgjalaLg6l-32">
          <mxGeometry relative="1" as="geometry" />
        </mxCell>
        <mxCell id="oqBidD13vxVgjalaLg6l-11" value="Pre-summary Agent" style="rounded=1;whiteSpace=wrap;html=1;fillColor=#ffe6cc;strokeColor=#d79b00;" vertex="1" parent="1">
          <mxGeometry x="281.5" y="342" width="167" height="60" as="geometry" />
        </mxCell>
        <mxCell id="oqBidD13vxVgjalaLg6l-19" value="" style="edgeStyle=none;curved=1;rounded=0;orthogonalLoop=1;jettySize=auto;html=1;fontSize=12;startSize=8;endSize=8;entryX=0.5;entryY=1;entryDx=0;entryDy=0;" edge="1" parent="1" source="oqBidD13vxVgjalaLg6l-12" target="oqBidD13vxVgjalaLg6l-13">
          <mxGeometry relative="1" as="geometry">
            <mxPoint x="632" y="654" as="targetPoint" />
          </mxGeometry>
        </mxCell>
        <mxCell id="oqBidD13vxVgjalaLg6l-45" style="edgeStyle=orthogonalEdgeStyle;rounded=0;orthogonalLoop=1;jettySize=auto;html=1;entryX=0;entryY=0.5;entryDx=0;entryDy=0;fontSize=12;startSize=8;endSize=8;exitX=1;exitY=0.5;exitDx=0;exitDy=0;dashed=1;" edge="1" parent="1" source="oqBidD13vxVgjalaLg6l-12" target="oqBidD13vxVgjalaLg6l-40">
          <mxGeometry relative="1" as="geometry" />
        </mxCell>
        <mxCell id="oqBidD13vxVgjalaLg6l-12" value="Post-summary Agent" style="rounded=1;whiteSpace=wrap;html=1;fillColor=#ffe6cc;strokeColor=#d79b00;" vertex="1" parent="1">
          <mxGeometry x="548" y="700" width="167" height="60" as="geometry" />
        </mxCell>
        <mxCell id="oqBidD13vxVgjalaLg6l-27" value="" style="edgeStyle=none;curved=1;rounded=0;orthogonalLoop=1;jettySize=auto;html=1;fontSize=12;startSize=8;endSize=8;" edge="1" parent="1" source="oqBidD13vxVgjalaLg6l-13" target="oqBidD13vxVgjalaLg6l-10">
          <mxGeometry relative="1" as="geometry" />
        </mxCell>
        <mxCell id="oqBidD13vxVgjalaLg6l-30" style="edgeStyle=none;curved=1;rounded=0;orthogonalLoop=1;jettySize=auto;html=1;entryX=0;entryY=0.5;entryDx=0;entryDy=0;fontSize=12;startSize=8;endSize=8;" edge="1" parent="1" source="oqBidD13vxVgjalaLg6l-13" target="oqBidD13vxVgjalaLg6l-29">
          <mxGeometry relative="1" as="geometry" />
        </mxCell>
        <mxCell id="oqBidD13vxVgjalaLg6l-50" value="" style="edgeStyle=none;curved=1;rounded=0;orthogonalLoop=1;jettySize=auto;html=1;fontSize=12;startSize=8;endSize=8;entryX=0.5;entryY=1;entryDx=0;entryDy=0;dashed=1;" edge="1" parent="1" source="oqBidD13vxVgjalaLg6l-13" target="oqBidD13vxVgjalaLg6l-46">
          <mxGeometry relative="1" as="geometry" />
        </mxCell>
        <mxCell id="oqBidD13vxVgjalaLg6l-13" value="Evaluation Agent" style="rounded=1;whiteSpace=wrap;html=1;" vertex="1" parent="1">
          <mxGeometry x="548" y="539" width="167" height="60" as="geometry" />
        </mxCell>
        <mxCell id="oqBidD13vxVgjalaLg6l-32" value="" style="rounded=0;whiteSpace=wrap;html=1;fillColor=#f5f5f5;fontColor=#333333;strokeColor=#666666;" vertex="1" parent="1">
          <mxGeometry y="342" width="207" height="60" as="geometry" />
        </mxCell>
        <mxCell id="oqBidD13vxVgjalaLg6l-18" style="edgeStyle=orthogonalEdgeStyle;rounded=0;orthogonalLoop=1;jettySize=auto;html=1;entryX=0.5;entryY=1;entryDx=0;entryDy=0;fontSize=12;startSize=8;endSize=8;exitX=1;exitY=0.5;exitDx=0;exitDy=0;" edge="1" parent="1" source="oqBidD13vxVgjalaLg6l-15" target="oqBidD13vxVgjalaLg6l-12">
          <mxGeometry relative="1" as="geometry" />
        </mxCell>
        <mxCell id="oqBidD13vxVgjalaLg6l-75" style="edgeStyle=none;curved=1;rounded=0;orthogonalLoop=1;jettySize=auto;html=1;entryX=0.5;entryY=0;entryDx=0;entryDy=0;fontSize=12;startSize=8;endSize=8;" edge="1" parent="1" source="oqBidD13vxVgjalaLg6l-15" target="oqBidD13vxVgjalaLg6l-73">
          <mxGeometry relative="1" as="geometry" />
        </mxCell>
        <mxCell id="oqBidD13vxVgjalaLg6l-15" value="Web Scrape Agent" style="rounded=1;whiteSpace=wrap;html=1;" vertex="1" parent="1">
          <mxGeometry x="380" y="776" width="137" height="60" as="geometry" />
        </mxCell>
        <mxCell id="oqBidD13vxVgjalaLg6l-58" style="edgeStyle=none;curved=1;rounded=0;orthogonalLoop=1;jettySize=auto;html=1;entryX=0.5;entryY=1;entryDx=0;entryDy=0;fontSize=12;startSize=8;endSize=8;dashed=1;" edge="1" parent="1" source="oqBidD13vxVgjalaLg6l-29" target="oqBidD13vxVgjalaLg6l-54">
          <mxGeometry relative="1" as="geometry" />
        </mxCell>
        <mxCell id="oqBidD13vxVgjalaLg6l-29" value="Analysis Agent" style="rounded=1;whiteSpace=wrap;html=1;" vertex="1" parent="1">
          <mxGeometry x="1140" y="539" width="167" height="60" as="geometry" />
        </mxCell>
        <mxCell id="oqBidD13vxVgjalaLg6l-31" value="將當前的Product 的規格及價格條列式統整成json格式" style="text;html=1;align=center;verticalAlign=middle;whiteSpace=wrap;rounded=0;" vertex="1" parent="1">
          <mxGeometry x="28.5" y="362.5" width="150" height="19" as="geometry" />
        </mxCell>
        <mxCell id="oqBidD13vxVgjalaLg6l-33" value="Pre-summary Task" style="text;html=1;align=center;verticalAlign=middle;whiteSpace=wrap;rounded=0;" vertex="1" parent="1">
          <mxGeometry x="28" y="305" width="151" height="30" as="geometry" />
        </mxCell>
        <mxCell id="oqBidD13vxVgjalaLg6l-35" value="資訊不夠多" style="text;html=1;align=center;verticalAlign=middle;whiteSpace=wrap;rounded=0;" vertex="1" parent="1">
          <mxGeometry x="464" y="533" width="75" height="30" as="geometry" />
        </mxCell>
        <mxCell id="oqBidD13vxVgjalaLg6l-38" value="資訊符合要求且充足" style="text;html=1;align=center;verticalAlign=middle;whiteSpace=wrap;rounded=0;" vertex="1" parent="1">
          <mxGeometry x="809" y="533" width="127" height="30" as="geometry" />
        </mxCell>
        <mxCell id="oqBidD13vxVgjalaLg6l-40" value="" style="rounded=0;whiteSpace=wrap;html=1;fillColor=#f5f5f5;fontColor=#333333;strokeColor=#666666;" vertex="1" parent="1">
          <mxGeometry x="868" y="688.5" width="243" height="83" as="geometry" />
        </mxCell>
        <mxCell id="oqBidD13vxVgjalaLg6l-41" value="將搜尋到的競品Product 的規格及價格等等條列式統整成json格式" style="text;html=1;align=center;verticalAlign=middle;whiteSpace=wrap;rounded=0;" vertex="1" parent="1">
          <mxGeometry x="904" y="709" width="180" height="42" as="geometry" />
        </mxCell>
        <mxCell id="oqBidD13vxVgjalaLg6l-42" value="Post-summary Task" style="text;html=1;align=center;verticalAlign=middle;whiteSpace=wrap;rounded=0;" vertex="1" parent="1">
          <mxGeometry x="914" y="650" width="151" height="30" as="geometry" />
        </mxCell>
        <mxCell id="oqBidD13vxVgjalaLg6l-46" value="" style="rounded=0;whiteSpace=wrap;html=1;fillColor=#f5f5f5;fontColor=#333333;strokeColor=#666666;" vertex="1" parent="1">
          <mxGeometry x="535" y="346" width="193" height="95" as="geometry" />
        </mxCell>
        <mxCell id="oqBidD13vxVgjalaLg6l-65" value="" style="edgeStyle=orthogonalEdgeStyle;rounded=0;orthogonalLoop=1;jettySize=auto;html=1;fontSize=12;startSize=8;endSize=8;exitX=1;exitY=0.5;exitDx=0;exitDy=0;entryX=0;entryY=0.5;entryDx=0;entryDy=0;" edge="1" parent="1" source="oqBidD13vxVgjalaLg6l-46" target="oqBidD13vxVgjalaLg6l-64">
          <mxGeometry relative="1" as="geometry">
            <mxPoint x="705" y="409" as="sourcePoint" />
          </mxGeometry>
        </mxCell>
        <mxCell id="oqBidD13vxVgjalaLg6l-47" value="1. 評估競品資訊是否符合要求&lt;div&gt;2.評估競品資訊是否充足&lt;/div&gt;&lt;div&gt;3. 將整理好的資訊存到memory裡&lt;/div&gt;" style="text;html=1;align=left;verticalAlign=middle;whiteSpace=wrap;rounded=0;" vertex="1" parent="1">
          <mxGeometry x="542.5" y="355" width="185.5" height="79.5" as="geometry" />
        </mxCell>
        <mxCell id="oqBidD13vxVgjalaLg6l-48" value="Evaluation Task" style="text;html=1;align=center;verticalAlign=middle;whiteSpace=wrap;rounded=0;" vertex="1" parent="1">
          <mxGeometry x="556" y="316" width="151" height="30" as="geometry" />
        </mxCell>
        <mxCell id="oqBidD13vxVgjalaLg6l-54" value="" style="rounded=0;whiteSpace=wrap;html=1;fillColor=#f5f5f5;fontColor=#333333;strokeColor=#666666;" vertex="1" parent="1">
          <mxGeometry x="1096.5" y="363.5" width="254" height="60" as="geometry" />
        </mxCell>
        <mxCell id="oqBidD13vxVgjalaLg6l-55" value="拿Memory存到的競品資訊進行競品分析" style="text;html=1;align=center;verticalAlign=middle;whiteSpace=wrap;rounded=0;" vertex="1" parent="1">
          <mxGeometry x="1120" y="376.5" width="221.5" height="34" as="geometry" />
        </mxCell>
        <mxCell id="oqBidD13vxVgjalaLg6l-56" value="Analysis Task" style="text;html=1;align=center;verticalAlign=middle;whiteSpace=wrap;rounded=0;" vertex="1" parent="1">
          <mxGeometry x="1144" y="326.5" width="151" height="30" as="geometry" />
        </mxCell>
        <mxCell id="oqBidD13vxVgjalaLg6l-69" value="" style="edgeStyle=none;curved=1;rounded=0;orthogonalLoop=1;jettySize=auto;html=1;fontSize=12;startSize=8;endSize=8;entryX=0;entryY=0.5;entryDx=0;entryDy=0;" edge="1" parent="1" source="oqBidD13vxVgjalaLg6l-64" target="oqBidD13vxVgjalaLg6l-54">
          <mxGeometry relative="1" as="geometry" />
        </mxCell>
        <mxCell id="oqBidD13vxVgjalaLg6l-64" value="Memory" style="whiteSpace=wrap;html=1;fillColor=#fff2cc;strokeColor=#d6b656;" vertex="1" parent="1">
          <mxGeometry x="900" y="363.5" width="120" height="60" as="geometry" />
        </mxCell>
        <mxCell id="oqBidD13vxVgjalaLg6l-67" value="存入Memory" style="text;html=1;align=center;verticalAlign=middle;whiteSpace=wrap;rounded=0;" vertex="1" parent="1">
          <mxGeometry x="787.5" y="353" width="91" height="30" as="geometry" />
        </mxCell>
        <mxCell id="oqBidD13vxVgjalaLg6l-70" value="" style="rounded=0;whiteSpace=wrap;html=1;fillColor=#f5f5f5;fontColor=#333333;strokeColor=#666666;" vertex="1" parent="1">
          <mxGeometry x="100.5" y="941" width="193" height="78" as="geometry" />
        </mxCell>
        <mxCell id="oqBidD13vxVgjalaLg6l-71" value="根據Pre-summary統整的產品資訊進行網路搜索" style="text;html=1;align=center;verticalAlign=middle;whiteSpace=wrap;rounded=0;" vertex="1" parent="1">
          <mxGeometry x="128" y="963" width="138" height="34" as="geometry" />
        </mxCell>
        <mxCell id="oqBidD13vxVgjalaLg6l-73" value="" style="rounded=0;whiteSpace=wrap;html=1;fillColor=#f5f5f5;fontColor=#333333;strokeColor=#666666;" vertex="1" parent="1">
          <mxGeometry x="356.5" y="941" width="184" height="78" as="geometry" />
        </mxCell>
        <mxCell id="oqBidD13vxVgjalaLg6l-74" value="根據網路搜索到的網頁進行網頁爬取" style="text;html=1;align=center;verticalAlign=middle;whiteSpace=wrap;rounded=0;" vertex="1" parent="1">
          <mxGeometry x="384" y="963" width="124.5" height="34" as="geometry" />
        </mxCell>
      </root>
    </mxGraphModel>
  </diagram>
</mxfile>
